<svg width="200" height="308" viewBox="0 0 200 308" fill="none" xmlns="http://www.w3.org/2000/svg">
<path d="M199.5 302H152.5V283C142.531 298.577 125.312 308 106.818 308H95C53.8548 308 20.5 274.645 20.5 233.5V204.5H0V167H20.5V152H0V114.5H20.5V80C20.5 35.8172 56.3172 0 100.5 0H119.5C163.683 0 199.5 35.8172 199.5 80V114.5H123.5V57.5C123.5 51.9772 119.023 47.5 113.5 47.5H105C99.4771 47.5 95 51.9772 95 57.5V114.5H101.5V152H95V167H101.5V204.5H95V245C95 250.523 99.4771 255 105 255H113.5C119.023 255 123.5 250.523 123.5 245V184H111V144H199.5V302Z" fill="#D9D9D9"/>
</svg>
