<svg width="128" height="179" viewBox="0 0 128 179" fill="none" xmlns="http://www.w3.org/2000/svg">
<path d="M0 83.76V60.96H121.68V83.76H0ZM0 116.16V93.36H121.68V116.16H0ZM54.96 89.52C54.96 101.2 56.48 110.88 59.52 118.56C62.72 126.24 67.04 131.92 72.48 135.6C77.92 139.28 84.16 141.12 91.2 141.12C104.96 141.12 116.96 136.16 127.2 126.24V168.96C121.76 172 116 174.4 109.92 176.16C104 177.92 97.76 178.8 91.2 178.8C75.2 178.8 61.52 174.88 50.16 167.04C38.96 159.04 30.32 148.32 24.24 134.88C18.16 121.44 15.12 106.32 15.12 89.52C15.12 77.04 16.8 65.36 20.16 54.48C23.68 43.6 28.72 34.08 35.28 25.92C41.84 17.76 49.84 11.44 59.28 6.96001C68.72 2.32 79.36 0 91.2 0C97.76 0 104 0.880003 109.92 2.64001C116 4.24001 121.76 6.64001 127.2 9.84V52.8C116.96 42.88 104.96 37.92 91.2 37.92C84.16 37.92 77.92 39.76 72.48 43.44C67.04 47.12 62.72 52.8 59.52 60.48C56.48 68 54.96 77.68 54.96 89.52Z" fill="black"/>
</svg>
